<?xml version="1.0" encoding="UTF-8"?>
<svg version="1.1" xmlns="http://www.w3.org/2000/svg" width="1024" height="1024">
<path d="M0 0 C172.59 0 345.18 0 523 0 C525.29790378 51.70283501 525.29790378 51.70283501 526.00561523 72.60546875 C526.08951316 75.03214696 526.1736172 77.45881805 526.25790405 79.88548279 C526.43534483 85.00501415 526.61148849 90.12458763 526.78652763 95.24420166 C527.04223197 102.72037396 527.30093964 110.19643967 527.56048096 117.67247963 C527.98554852 129.91718215 528.40914079 142.16193512 528.83129883 154.40673828 C528.86879523 155.49429979 528.86879523 155.49429979 528.90704913 156.60383224 C529.18451572 164.65244252 529.46166999 172.70106351 529.73852539 180.74969482 C530.40118297 200.01357996 531.06582435 219.27739446 531.73608929 238.54101658 C531.78443195 239.93052137 531.83275744 241.32002675 531.88106579 242.70953274 C533.17291002 279.86661646 534.52538338 317.01839643 536.24533463 354.15845776 C537.25131545 375.91902876 538.17360912 397.66996992 538.09765625 419.45703125 C538.09577836 421.11952165 538.09436101 422.78201262 538.09336853 424.44450378 C538.08965078 428.70368126 538.07992064 432.96282154 538.06866455 437.22198486 C538.05821118 441.61478167 538.05382112 446.00758482 538.04882812 450.40039062 C538.03828187 458.93361034 538.02134522 467.46680048 538 476 C538.99 476 539.98 476 541 476 C541.14550293 475.41331543 541.29100586 474.82663086 541.44091797 474.22216797 C543.83136501 465.01420047 546.96954105 456.09157296 550.125 447.125 C550.42690247 446.26463135 550.72880493 445.4042627 551.03985596 444.51782227 C563.41068161 409.31961943 576.92075037 374.54661213 591 340 C591.54850616 338.65322174 591.54850616 338.65322174 592.10809326 337.27923584 C601.68589182 313.77693846 611.48890563 290.38115348 621.59301758 267.1003418 C627.95324175 252.44555008 634.24333912 237.76180276 640.5 223.0625 C640.98555359 221.92190125 641.47110718 220.78130249 641.97137451 219.60614014 C649.4189701 202.10638121 656.82967337 184.59118782 664.21875 167.06665039 C669.29199101 155.03565929 674.387391 143.01431133 679.5 131 C685.85882335 116.05694127 692.18392658 101.09990894 698.49377441 86.1361084 C703.11278386 75.18365581 707.74471163 64.23687211 712.40234375 53.30078125 C712.85092239 52.2474913 713.29950104 51.19420135 713.76167297 50.10899353 C715.91912989 45.04445919 718.07827136 39.98064967 720.23950195 34.91772461 C721.02965762 33.06502583 721.81962032 31.21224474 722.609375 29.359375 C723.17279854 28.0379525 723.17279854 28.0379525 723.74760437 26.68983459 C726.52462954 20.15960835 729.23991093 13.60535189 731.89447021 7.02435303 C733.89345786 2.10654214 733.89345786 2.10654214 735 1 C737.89518589 0.90204822 740.76652079 0.87007907 743.66212463 0.87974548 C745.04160519 0.87846385 745.04160519 0.87846385 746.44895405 0.87715632 C749.55526277 0.8754987 752.66151845 0.88102748 755.76782227 0.88647461 C757.98469034 0.88675645 760.2015585 0.88659882 762.41842651 0.8860321 C768.45743901 0.88574399 774.49643183 0.8916429 780.53543973 0.89860606 C786.83888733 0.90483736 793.14233532 0.90544322 799.44578552 0.90663147 C810.03246395 0.90939117 820.61913589 0.91564668 831.20581055 0.92456055 C842.11206018 0.93373397 853.01830784 0.94081514 863.92456055 0.94506836 C864.59637183 0.94533108 865.26818311 0.94559381 865.96035231 0.94586449 C869.33049769 0.94716949 872.70064309 0.94843321 876.0707885 0.94967639 C904.04719739 0.96014229 932.02359819 0.97774302 960 1 C959.38795896 9.30888975 958.47229019 17.53608494 957.33578491 25.78849792 C957.16805608 27.02498374 957.00032725 28.26146956 956.82751572 29.53542465 C956.36464971 32.94699762 955.89793735 36.35803461 955.43056214 39.76899233 C954.92194676 43.4860987 954.41697689 47.20370059 953.91153717 50.92123985 C953.02659924 57.4262988 952.13936377 63.93104111 951.25060654 70.4355793 C949.93064363 80.0960772 948.6142944 89.75706509 947.29868974 99.41815736 C945.08871172 115.64631518 942.87587288 131.87408167 940.66137695 148.10162354 C938.47135631 164.14989733 936.28256395 180.19833785 934.09545898 196.24700928 C933.95948111 197.24479304 933.82350324 198.24257681 933.68340483 199.27059644 C932.99317532 204.33545247 932.30297243 209.40031211 931.61278391 214.46517372 C930.21184671 224.74574032 928.81075217 235.02628548 927.40960693 245.30682373 C927.26954132 246.33452308 927.12947571 247.36222244 926.98516569 248.4210642 C924.82998279 264.23402611 922.67403403 280.0468835 920.51763916 295.85968018 C920.22633929 297.99579094 919.93503955 300.13190172 919.64373994 302.26801252 C919.49936963 303.32668405 919.35499933 304.38535557 919.20625417 305.47610804 C912.12859793 357.37680224 905.05821805 409.27848375 897.9926033 461.18081856 C896.33802974 473.33491745 894.68325061 485.48898836 893.02841187 497.64305115 C892.8939731 498.6304482 892.75953434 499.61784525 892.62102167 500.63516342 C891.28088915 510.47787763 889.9407386 520.32058939 888.60058048 530.16330012 C888.07356306 534.03395101 887.54654765 537.90460217 887.0195332 541.77525347 C886.75769174 543.69834399 886.49584966 545.62143444 886.23400696 547.5445248 C884.79921289 558.08231857 883.36449879 568.62012323 881.92998505 579.15795517 C879.19112336 599.27738257 876.45188933 619.39675906 873.7110821 639.51592153 C872.47023827 648.62459205 871.2298994 657.73333099 869.99029274 666.84216996 C869.16398614 672.91364705 868.3370326 678.9850358 867.50954383 685.05635188 C867.03791811 688.51682431 866.56657858 691.97733506 866.09602427 695.43795335 C865.58978428 699.1598899 865.08244974 702.88167562 864.5748291 706.60342407 C864.35503252 708.22235444 864.35503252 708.22235444 864.1307956 709.87399048 C863.9952964 710.86574675 863.85979719 711.85750302 863.72019196 712.87931252 C863.60435839 713.72991615 863.48852483 714.58051978 863.36918116 715.45689929 C862.95484892 718.31102274 862.4741334 721.15519959 862 724 C807.22 724 752.44 724 696 724 C696.59478115 715.6730639 697.19041249 707.64918378 698.46194458 699.45127869 C698.60739051 698.48404627 698.75283643 697.51681385 698.90268981 696.52027136 C699.384517 693.32512139 699.87410489 690.13121332 700.36376953 686.93725586 C700.71441791 684.62313166 701.06459375 682.30893582 701.41433716 679.99467468 C702.3646968 673.71594909 703.32197469 667.4382964 704.28072596 661.16084743 C704.8866084 657.18996584 705.49065356 653.21881009 706.09371567 649.24749947 C706.19471306 648.58240725 706.29571045 647.91731503 706.39976837 647.2320685 C706.60525339 645.87881397 706.81073186 644.52555846 707.01620387 643.17230196 C708.83508719 631.19447939 710.65949609 619.21750484 712.48681641 607.2409668 C714.22517913 595.84746282 715.95908665 584.45329311 717.68798828 573.05834961 C726.02689807 518.10186851 734.3906749 463.15021325 743.2421875 408.2734375 C743.38947627 407.3587925 743.53676503 406.44414751 743.68851709 405.50178599 C754.1745296 340.38767637 765.91910048 275.4918697 778.18359375 210.69140625 C778.32205656 209.95830105 778.46051937 209.22519585 778.60317802 208.46987534 C778.98863217 206.43092168 779.3757228 204.39228648 779.76342773 202.35375977 C779.97942123 201.21592545 780.19541473 200.07809113 780.41795349 198.90577698 C780.88370459 196.58058682 781.39551691 194.29213929 782 192 C781.34 192 780.68 192 780 192 C779.82730591 192.61002869 779.65461182 193.22005737 779.47668457 193.84857178 C777.70953838 199.9324788 775.61688602 205.77984955 773.21875 211.640625 C772.85322021 212.54400604 772.48769043 213.44738708 772.11108398 214.37814331 C770.91206957 217.3373534 769.70629356 220.29375048 768.5 223.25 C767.64758182 225.34741033 766.79537201 227.44490536 765.94335938 229.54248047 C763.30448081 236.03197132 760.65430844 242.51680682 758 249 C757.59104492 249.99898315 757.18208984 250.99796631 756.76074219 252.02722168 C728.40136845 321.26370488 698.94860411 390.06516211 667.3984375 457.9140625 C667.00390884 458.76251236 666.60938019 459.61096222 666.20289612 460.48512268 C664.58196674 463.97048294 662.96102745 467.45583854 661.33969116 470.94100952 C655.77534158 482.91016384 650.32601806 494.92301308 645 507 C638.50741052 521.72224038 631.79060859 536.33225065 625.00268555 550.92041016 C619.43616051 562.88524388 613.93555273 574.87774135 608.48974609 586.89794922 C607.88380539 588.23535896 607.27784837 589.57276131 606.671875 590.91015625 C606.37258087 591.57082092 606.07328674 592.2314856 605.7649231 592.91217041 C603.54873152 597.80018444 601.31676091 602.68082257 599.078125 607.55859375 C591.92994931 623.13869869 584.8716912 638.75200894 577.94598389 654.43237305 C572.39715213 666.9835225 566.65390487 679.43506285 560.78295898 691.83862305 C560.48335266 692.47214691 560.18374634 693.10567078 559.87506104 693.75839233 C559.07291925 695.45275736 558.26837021 697.14598218 557.46362305 698.83911133 C555.90921593 702.19606027 554.45725054 705.59974875 553 709 C508.12 709 463.24 709 417 709 C416.27223623 705.36118116 415.82358352 702.28701739 415.65107155 698.63631535 C415.59867966 697.56674282 415.54628778 696.4971703 415.49230826 695.39518648 C415.41220072 693.64085847 415.41220072 693.64085847 415.33047485 691.85108948 C415.27048384 690.60328184 415.21049283 689.35547419 415.14868391 688.0698542 C414.98227613 684.60619497 414.82063106 681.14232734 414.65976667 677.67840683 C414.48523151 673.93791478 414.30630661 670.19763236 414.12794495 666.45732117 C413.77826355 659.10933545 413.43271513 651.76116085 413.0886016 644.4129125 C412.80685316 638.39818943 412.52356868 632.38354048 412.23920822 626.36894035 C412.17826508 625.0798898 412.17826508 625.0798898 412.11609077 623.76479782 C412.03347841 622.01756634 411.95086212 620.27033505 411.86824195 618.52310394 C411.0914875 602.09287739 410.31935214 585.66243623 409.54882531 569.2319166 C408.89595749 555.31240921 408.2394672 541.3930769 407.58007812 527.47387695 C406.80971558 511.2120548 406.04168454 494.95012508 405.27708948 478.68803066 C405.19420288 476.92522385 405.11131417 475.16241713 405.02842331 473.39961052 C404.98767878 472.53307394 404.94693425 471.66653736 404.90495504 470.7737421 C404.62602698 464.84457802 404.34561092 458.91548555 404.06456375 452.98642159 C402.38702134 417.57727562 400.79922179 382.16655058 399.43475553 346.74380808 C399.37119024 345.09369438 399.3074866 343.44358601 399.24363306 341.79348345 C398.05128094 310.97961698 397.15226369 280.16242527 396.40332031 249.33453369 C396.24610294 242.91302806 396.08265763 236.49168023 395.91992188 230.0703125 C395.60759568 217.71367925 395.30145852 205.35690288 395 193 C394.86897762 193.64002771 394.73795525 194.28005543 394.60296249 194.93947792 C354.27524626 391.91926982 354.27524626 391.91926982 334.52351284 478.47048569 C333.18007019 484.22481188 331.84126234 489.98020973 330.50341797 495.73583984 C325.23122855 518.41551372 319.94688504 541.0923311 314.65372086 563.76711845 C310.8343707 580.12905508 307.0221656 596.49263902 303.21622658 612.85770035 C301.59431114 619.83121577 299.97158741 626.80454317 298.34895229 633.77789116 C297.06168367 639.31035485 295.77491617 644.84293405 294.48934937 650.37579346 C293.28272046 655.56881976 292.07459103 660.76149499 290.86546898 665.95394135 C290.42979694 667.82603276 289.9946261 669.69824092 289.56008339 671.57059479 C285.49638412 689.07815215 281.23485244 706.53123367 277 724 C224.53 724 172.06 724 118 724 C136.55071255 648.63773027 136.55071255 648.63773027 143.78945732 619.70950699 C145.25821824 613.838647 146.72528238 607.96736352 148.19230652 602.09606934 C150.59617615 592.47624316 153.00126063 582.85672117 155.40684603 573.23732392 C157.37040705 565.38537938 159.3334853 557.53331426 161.2962532 549.68117142 C161.58030128 548.54482587 161.86434936 547.40848032 162.15700496 546.23770005 C162.73484327 543.92602695 163.31268056 541.61435358 163.89051683 539.30267997 C169.25553704 517.83977638 174.62197513 496.37722753 179.98893471 474.91480882 C184.54713037 456.68648751 189.10409504 438.45785883 193.66015625 420.22900391 C199.00873281 398.82928786 204.35810778 377.42977163 209.70867217 356.03055251 C210.28448748 353.72760963 210.86030185 351.42466652 211.43611526 349.12172318 C211.71909422 347.98996162 212.00207318 346.85820007 212.29362725 345.69214272 C214.24295891 337.89566254 216.19175688 330.09904908 218.14033127 322.30237961 C230.02796353 274.73862521 241.95640133 227.18605752 254.03729045 179.67099178 C257.92063452 164.39007602 261.77317488 149.10138538 265.625 133.8125 C265.79397215 133.14183609 265.96294431 132.47117219 266.13703683 131.78018513 C270.20512892 118.04530817 270.20512892 118.04530817 272 104 C257.89033776 97.17194058 243.60544406 90.83482382 229.1875 84.6875 C227.57152924 83.99693512 227.57152924 83.99693512 225.9229126 83.29241943 C209.34767562 76.21264906 192.73457083 69.27799434 175.93225098 62.75219727 C173.87756035 61.95233602 171.82485678 61.14752735 169.77246094 60.34179688 C118.90675829 40.38684959 67.36410235 21.79534492 15.02148438 6.0847168 C14.16199692 5.82444199 13.30250946 5.56416718 12.41697693 5.29600525 C10.8075111 4.80896622 9.19646242 4.32711708 7.58363342 3.85133362 C2.22485561 2.22485561 2.22485561 2.22485561 0 0 Z " fill="#0C51EE" transform="translate(24,150)"/>
<path d="M0 0 C172.59 0 345.18 0 523 0 C525.30063718 51.76433644 525.30063718 51.76433644 525.96142578 70.96801758 C526.04036514 73.21468197 526.11948375 75.46134006 526.19876099 77.70799255 C526.40723738 83.63176459 526.61310351 89.55562421 526.81822062 95.47951341 C526.99139091 100.47331942 527.16593143 105.46707721 527.34044063 110.46083659 C527.75185628 122.23464744 528.16109784 134.00853237 528.56884766 145.7824707 C528.96408229 157.1940423 529.36236274 168.60550384 529.76271428 180.016897 C530.15363607 191.16024715 530.54243035 202.30367007 530.92907703 213.44716948 C531.14469665 219.66105394 531.36108943 225.8749088 531.57956314 232.08869362 C531.78400084 237.90609342 531.9857071 243.72358184 532.18537521 249.54114723 C532.25858818 251.6614614 532.33272859 253.78174381 532.40791321 255.90198898 C532.82237951 267.60772566 533.10642069 279.28616016 533 291 C530.33412028 288.42607936 528.44446175 285.75066486 526.4375 282.625 C519.80713803 272.57642582 512.50755993 263.31790773 504.30859375 254.4921875 C502.28059379 252.30290836 500.31788817 250.07700005 498.375 247.8125 C493.13454671 241.79886507 487.47300121 236.27038595 481.41796875 231.08203125 C479.54812801 229.47197452 477.70184781 227.84436702 475.86328125 226.19921875 C465.70010578 217.16450037 454.96590538 209.03052235 444 201 C443.21657227 200.42185547 442.43314453 199.84371094 441.62597656 199.24804688 C431.00476242 191.41147126 420.17654939 184.02024 409 177 C407.81180664 176.25049072 407.81180664 176.25049072 406.59960938 175.48583984 C384.87720266 161.8092422 362.69133203 148.99895398 340 137 C338.90655273 136.42169434 337.81310547 135.84338867 336.68652344 135.24755859 C322.01739325 127.51845896 307.21833572 120.07418154 292.3125 112.8125 C291.19468643 112.26632019 291.19468643 112.26632019 290.05429077 111.70910645 C282.93398383 108.23507419 275.83522987 104.81903133 268.4362793 101.96948242 C263.29246298 99.92257446 258.28771476 97.54262113 253.25 95.25 C176.00523159 60.35710124 96.05352346 31.91428486 15.39453125 6.05859375 C10.25048224 4.40835926 5.12060606 2.72153566 0 1 C0 0.67 0 0.34 0 0 Z " fill="#EC1E79" transform="translate(24,150)"/>
</svg>
